<svg xmlns="http://www.w3.org/2000/svg" width="132.737" height="150.849" viewBox="0 0 132.737 150.849">
  <g id="Group_24" data-name="Group 24" transform="translate(-968 -2440.651)">
    <g id="LOGO" transform="translate(968.875 2391.548)">
      <path id="Path_243" data-name="Path 243" d="M25.465,128.576c-11.6.21-21.09-6.843-24.5-18.249-3.039-10.153,1.2-20.8,11.048-26.979a56.627,56.627,0,0,1,10.158-4.967C43.822,70.25,54.263,54.816,53.3,31.619c-.316-7.617.352-15.073,5.156-21.6C64.357,2.013,72.3-1.108,81.849.345a24.974,24.974,0,0,1,20.512,19.9c1.961,9.818-.8,17.949-8.874,24.129-4.316,3.3-9.368,4.932-14.393,6.685-21.3,7.426-30.158,20.125-29.8,42.612.066,4.117.42,8.258.151,12.348C48.56,119.447,39,128.331,25.465,128.576Z" transform="matrix(0.966, 0.259, -0.259, 0.966, 32.405, 49.103)" fill="#e66b27"/>
    </g>
    <path id="Icon_material-arrow_back" data-name="Icon material-arrow_back" d="M26.953,15.167H11.016l7.32-7.32L16.477,6,6,16.477,16.477,26.953l1.846-1.846-7.307-7.32H26.953Z" transform="translate(981.487 2532.476)" fill="#fff"/>
    <path id="Icon_material-arrow_back-2" data-name="Icon material-arrow_back" d="M6,15.391H22.326l-7.5-7.5L16.732,6,27.464,16.732,16.732,27.464l-1.892-1.892,7.486-7.5H6Z" transform="translate(1054.231 2469.22)" fill="#fff"/>
  </g>
</svg>
