<svg xmlns="http://www.w3.org/2000/svg" xmlns:xlink="http://www.w3.org/1999/xlink" width="1643.179" height="1038.078" viewBox="0 0 1643.179 1038.078">
  <defs>
    <clipPath id="clip-path">
      <path id="Path_833" data-name="Path 833" d="M0,1038.078H1491.179V0H0Z"/>
    </clipPath>
    <clipPath id="clip-path-2">
      <path id="Path_926" data-name="Path 926" d="M0,922.449H1622.179V0H0Z"/>
    </clipPath>
  </defs>
  <g id="Group_168" data-name="Group 168" transform="translate(59.179 -113)">
    <g id="Group_66" data-name="Group 66" transform="translate(-59.179 113)" clip-path="url(#clip-path)">
      <path id="Path_812" data-name="Path 812" d="M100.843,436.149A12.959,12.959,0,1,0,113.8,423.19,12.955,12.955,0,0,0,100.843,436.149Z" transform="translate(-24.657 -103.474)" fill="#e66b27"/>
      <path id="Path_813" data-name="Path 813" d="M-37.2,470.368a6.339,6.339,0,0,0,6.332,6.332,6.339,6.339,0,0,0,6.332-6.332,6.339,6.339,0,0,0-6.332-6.332A6.339,6.339,0,0,0-37.2,470.368Z" transform="translate(9.097 -113.461)" fill="#e66b27"/>
      <path id="Path_814" data-name="Path 814" d="M324.03,829.511a4.2,4.2,0,1,0,4.2-4.2A4.2,4.2,0,0,0,324.03,829.511Z" transform="translate(-79.228 -201.796)" fill="#e66b27" opacity="0.18"/>
      <circle id="Ellipse_421" data-name="Ellipse 421" cx="6.391" cy="6.391" r="6.391" transform="translate(-46.688 468.153)" fill="#e66b27"/>
      <circle id="Ellipse_422" data-name="Ellipse 422" cx="8.521" cy="8.521" r="8.521" transform="translate(105.891 74.322)" fill="#e66b27"/>
      <circle id="Ellipse_423" data-name="Ellipse 423" cx="3.787" cy="3.787" r="3.787" transform="translate(737.66 772.602)" fill="#e66b27" opacity="0.18"/>
      <path id="Path_815" data-name="Path 815" d="M708.841,892.886a8.284,8.284,0,1,0,8.284-8.284A8.271,8.271,0,0,0,708.841,892.886Z" transform="translate(-173.318 -216.293)" fill="#e66b27"/>
      <circle id="Ellipse_424" data-name="Ellipse 424" cx="11.953" cy="11.953" r="11.953" transform="translate(-28.611 220.186)" fill="#e66b27"/>
      <path id="Path_816" data-name="Path 816" d="M424.913,414.194a9.764,9.764,0,1,0,9.764-9.764A9.773,9.773,0,0,0,424.913,414.194Z" transform="translate(-103.895 -98.887)" fill="#366"/>
      <path id="Path_817" data-name="Path 817" d="M434.978,1116.737a4.053,4.053,0,1,0,4.053-4.053A4.041,4.041,0,0,0,434.978,1116.737Z" transform="translate(-106.356 -272.061)" fill="#366" opacity="0.18"/>
      <path id="Path_818" data-name="Path 818" d="M1073.482,1113.6a9.261,9.261,0,1,0,9.261-9.261A9.256,9.256,0,0,0,1073.482,1113.6Z" transform="translate(-262.476 -270.022)" fill="#366"/>
      <circle id="Ellipse_425" data-name="Ellipse 425" cx="7.633" cy="7.633" r="7.633" transform="translate(40.386 772.602)" fill="#366"/>
      <path id="Path_819" data-name="Path 819" d="M508.055,672.872a5.621,5.621,0,1,0,5.621-5.622A5.619,5.619,0,0,0,508.055,672.872Z" transform="translate(-124.224 -163.149)" fill="#366" opacity="0.18"/>
      <path id="Path_820" data-name="Path 820" d="M1361.758,1109.45a4.911,4.911,0,1,0,4.911-4.911A4.9,4.9,0,0,0,1361.758,1109.45Z" transform="translate(-332.962 -270.07)" fill="#366" opacity="0.18"/>
      <path id="Path_821" data-name="Path 821" d="M549.136,532.091a4.024,4.024,0,1,0,4.024-4.024A4.028,4.028,0,0,0,549.136,532.091Z" transform="translate(-134.269 -129.117)" fill="#366" opacity="0.18"/>
      <circle id="Ellipse_426" data-name="Ellipse 426" cx="11.835" cy="11.835" r="11.835" transform="translate(94.648 470.639)" fill="#366"/>
      <path id="Path_822" data-name="Path 822" d="M701.047,668.662a11.006,11.006,0,1,0,11.006-11.006A11,11,0,0,0,701.047,668.662Z" transform="translate(-171.413 -160.803)" fill="#e66b27"/>
      <path id="Path_823" data-name="Path 823" d="M1087.307,878.13a5.355,5.355,0,1,0,5.355-5.355A5.354,5.354,0,0,0,1087.307,878.13Z" transform="translate(-265.856 -213.401)" fill="#366" opacity="0.18"/>
      <circle id="Ellipse_427" data-name="Ellipse 427" cx="6.657" cy="6.657" r="6.657" transform="translate(204.297 305.721)" fill="#e66b27" opacity="0.35"/>
      <path id="Path_824" data-name="Path 824" d="M275.939,1029.045a12.427,12.427,0,1,0,12.427-12.426A12.425,12.425,0,0,0,275.939,1029.045Z" transform="translate(-67.47 -248.572)" fill="#e66b27"/>
      <path id="Path_825" data-name="Path 825" d="M-74.487,825.251a8.056,8.056,0,0,0,8.048,8.048,8.056,8.056,0,0,0,8.048-8.048,8.056,8.056,0,0,0-8.048-8.048A8.037,8.037,0,0,0-74.487,825.251Z" transform="translate(18.213 -199.814)" fill="#e66b27"/>
      <path id="Path_826" data-name="Path 826" d="M88.664,835.908a6.095,6.095,0,1,0,6.095-6.095A6.086,6.086,0,0,0,88.664,835.908Z" transform="translate(-21.679 -202.897)" fill="#e66b27" opacity="0.35"/>
      <circle id="Ellipse_428" data-name="Ellipse 428" cx="7.249" cy="7.249" r="7.249" transform="translate(403.713 616.324)" fill="#366" opacity="0.18"/>
      <circle id="Ellipse_429" data-name="Ellipse 429" cx="10.622" cy="10.622" r="10.622" transform="translate(926.809 786.922)" fill="#366"/>
      <circle id="Ellipse_430" data-name="Ellipse 430" cx="4.586" cy="4.586" r="4.586" transform="translate(454.277 817.249)" fill="#e66b27" opacity="0.18"/>
      <path id="Path_827" data-name="Path 827" d="M31.957,150.027a4.734,4.734,0,1,0,4.734-4.734A4.729,4.729,0,0,0,31.957,150.027Z" transform="translate(-7.814 -35.525)" fill="#366" opacity="0.18"/>
      <circle id="Ellipse_431" data-name="Ellipse 431" cx="6.124" cy="6.124" r="6.124" transform="translate(311.432 189.829)" fill="#366" opacity="0.18"/>
      <path id="Path_828" data-name="Path 828" d="M869.407,1094.676a11.6,11.6,0,1,0,11.6-11.6A11.6,11.6,0,0,0,869.407,1094.676Z" transform="translate(-212.578 -264.822)" fill="#366"/>
      <circle id="Ellipse_432" data-name="Ellipse 432" cx="4.231" cy="4.231" r="4.231" transform="translate(675.173 651.355)" fill="#366" opacity="0.18"/>
      <path id="Path_829" data-name="Path 829" d="M887.539,687.8a5.71,5.71,0,1,0,5.71-5.71A5.695,5.695,0,0,0,887.539,687.8Z" transform="translate(-217.011 -166.778)" fill="#366" opacity="0.18"/>
      <circle id="Ellipse_433" data-name="Ellipse 433" cx="7.545" cy="7.545" r="7.545" transform="translate(499.279 343.09)" fill="#e66b27" opacity="0.35"/>
      <path id="Path_830" data-name="Path 830" d="M480.054,964.089a8.994,8.994,0,1,0,8.994-8.995A8.99,8.99,0,0,0,480.054,964.089Z" transform="translate(-117.377 -233.529)" fill="#217371"/>
      <path id="Path_831" data-name="Path 831" d="M214.924,260.337a3.314,3.314,0,1,0,3.314-3.314A3.308,3.308,0,0,0,214.924,260.337Z" transform="translate(-52.551 -62.845)" fill="#366" opacity="0.18"/>
      <path id="Path_832" data-name="Path 832" d="M762.807,1062.783a6.923,6.923,0,1,0,6.923-6.923A6.932,6.932,0,0,0,762.807,1062.783Z" transform="translate(-186.513 -258.167)" fill="#366" opacity="0.18"/>
      <circle id="Ellipse_434" data-name="Ellipse 434" cx="6.568" cy="6.568" r="6.568" transform="translate(244.979 478.272)" fill="#e66b27" opacity="0.35"/>
    </g>
    <g id="Group_159" data-name="Group 159" transform="translate(-38.179 150)" clip-path="url(#clip-path-2)">
      <g id="Group_67" data-name="Group 67" transform="translate(-13.261 -64.288)">
        <path id="Path_834" data-name="Path 834" d="M-15.749,41.48h.064L135.88,17.458a.361.361,0,0,0,.322-.247.313.313,0,0,0-.129-.356L-13.56-91.833a.462.462,0,0,0-.418-.055.338.338,0,0,0-.225.3l-1.931,132.71a.45.45,0,0,0,.129.274A.4.4,0,0,0-15.749,41.48ZM134.914,16.91-15.33,40.713l1.9-131.56Z" transform="translate(16.135 91.916)" fill="#366"/>
      </g>
      <g id="Group_68" data-name="Group 68" transform="translate(154.088 98.772)">
        <path id="Path_835" data-name="Path 835" d="M318.246,242.348a.422.422,0,0,0,.322-.137.3.3,0,0,0,.032-.356L262.467,141.412a.392.392,0,0,0-.322-.192.406.406,0,0,0-.354.137L187.57,224.571a.309.309,0,0,0-.064.329.435.435,0,0,0,.322.219l130.354,17.229ZM262.017,142.206l55.521,99.375L188.6,224.544Z" transform="translate(-187.487 -141.22)" fill="#366"/>
      </g>
      <g id="Group_69" data-name="Group 69" transform="translate(25.44 44.391)">
        <path id="Path_836" data-name="Path 836" d="M160.007,201.749a.429.429,0,0,0,.29-.11.327.327,0,0,0,.129-.274l-15.8-137.586a.416.416,0,0,0-.29-.3.446.446,0,0,0-.418.11L31.038,188.409a.319.319,0,0,0-.064.329.5.5,0,0,0,.322.219l128.616,12.792ZM143.882,64.738l15.675,136.3L32.132,188.354Z" transform="translate(-30.954 -63.468)" fill="#366"/>
      </g>
      <g id="Group_70" data-name="Group 70" transform="translate(138.297 44.418)">
        <path id="Path_837" data-name="Path 837" d="M184.469,201.76a.422.422,0,0,0,.322-.137l74.221-83.242a.248.248,0,0,0,.064-.247.374.374,0,0,0-.161-.219L168.891,63.572a.454.454,0,0,0-.418-.027.3.3,0,0,0-.193.329l15.8,137.586a.416.416,0,0,0,.29.3Zm73.642-83.488-73.352,82.256-15.61-135.97Z" transform="translate(-168.274 -63.506)" fill="#366"/>
      </g>
      <g id="Group_71" data-name="Group 71" transform="translate(-74.588 68.423)">
        <path id="Path_838" data-name="Path 838" d="M-90.356,208.077h.032L9.711,199.312a.315.315,0,0,0,.29-.164.258.258,0,0,0,.032-.3L-28.655,98.074a.455.455,0,0,0-.354-.247.4.4,0,0,0-.386.192L-90.71,207.584a.3.3,0,0,0,.032.356A.422.422,0,0,0-90.356,208.077Zm99.519-9.423L-89.68,207.31-29.106,99.088Z" transform="translate(90.755 -97.828)" fill="#366"/>
      </g>
      <g id="Group_72" data-name="Group 72" transform="translate(-13.282 44.396)">
        <path id="Path_839" data-name="Path 839" d="M22.967,188.959a.422.422,0,0,0,.322-.137L136.1,64.028a.338.338,0,0,0,.032-.383.474.474,0,0,0-.418-.164L-15.85,87.5a.331.331,0,0,0-.257.164.282.282,0,0,0-.032.274l38.72,100.8a.339.339,0,0,0,.322.219ZM134.845,64.329,23.128,187.918-15.238,88.1Z" transform="translate(16.161 -63.475)" fill="#366"/>
      </g>
      <g id="Group_73" data-name="Group 73" transform="translate(238.229 199.224)">
        <path id="Path_840" data-name="Path 840" d="M290.264,336.93h.1L401.95,317.373a.387.387,0,0,0,.322-.274.357.357,0,0,0-.193-.356l-65.4-31.856a.451.451,0,0,0-.515.082l-46.219,51.413a.338.338,0,0,0-.032.383A.471.471,0,0,0,290.264,336.93Zm110.463-20.05-109.5,19.174L336.58,285.6Z" transform="translate(-289.865 -284.841)" fill="#366"/>
      </g>
      <g id="Group_74" data-name="Group 74" transform="translate(128.176 182.004)">
        <path id="Path_841" data-name="Path 841" d="M266.41,329.53a.405.405,0,0,0,.354-.192.3.3,0,0,0-.1-.383l-84.134-68.642a.408.408,0,0,0-.354-.082.441.441,0,0,0-.29.219l-25.91,55.988a.327.327,0,0,0,.032.3.377.377,0,0,0,.29.164l110.044,12.655C266.378,329.53,266.378,329.53,266.41,329.53Zm-83.974-68.368,82.815,67.547L156.945,316.273Z" transform="translate(-155.958 -260.22)" fill="#366"/>
      </g>
      <g id="Group_75" data-name="Group 75" transform="translate(154.107 181.982)">
        <path id="Path_842" data-name="Path 842" d="M272.031,329.52h0a.376.376,0,0,0,.322-.137l46.219-51.413a.309.309,0,0,0,.064-.329.435.435,0,0,0-.322-.219L187.96,260.193a.408.408,0,0,0-.418.192.342.342,0,0,0,.1.411l84.134,68.642A.4.4,0,0,0,272.031,329.52Zm45.479-51.5L272,328.671l-82.911-67.629Z" transform="translate(-187.51 -260.188)" fill="#366"/>
      </g>
      <g id="Group_76" data-name="Group 76" transform="translate(25.458 169.198)">
        <path id="Path_843" data-name="Path 843" d="M96.412,324.711a.333.333,0,0,0,.161-.027l37.69-13.339a.4.4,0,0,0,.257-.274.312.312,0,0,0-.161-.329L31.621,241.99a.4.4,0,0,0-.515.027.3.3,0,0,0-.064.438L96.09,324.574A.422.422,0,0,0,96.412,324.711Zm36.885-13.75L96.54,323.972,33.134,243.88Z" transform="translate(-30.976 -241.911)" fill="#366"/>
      </g>
      <g id="Group_77" data-name="Group 77" transform="translate(25.46 169.217)">
        <path id="Path_844" data-name="Path 844" d="M134.1,311.408h.1a.354.354,0,0,0,.257-.192l25.91-55.988a.327.327,0,0,0-.032-.3.377.377,0,0,0-.29-.164L31.428,241.944a.367.367,0,0,0-.418.219.292.292,0,0,0,.129.383l102.706,68.779A.4.4,0,0,0,134.1,311.408Zm25.33-56.042L133.909,310.5,32.748,242.765Z" transform="translate(-30.979 -241.938)" fill="#366"/>
      </g>
      <g id="Group_78" data-name="Group 78" transform="translate(-74.575 178.007)">
        <path id="Path_845" data-name="Path 845" d="M74.729,328.5a.381.381,0,0,0,.386-.246.333.333,0,0,0-.193-.383L-90.16,254.541a.432.432,0,0,0-.451.055.3.3,0,0,0-.1.383l39.01,71.409a.405.405,0,0,0,.354.192L74.729,328.5ZM-89.484,255.581l162.508,72.2-124.11-1.89Z" transform="translate(90.739 -254.505)" fill="#366"/>
      </g>
      <g id="Group_79" data-name="Group 79" transform="translate(-74.581 169.216)">
        <path id="Path_846" data-name="Path 846" d="M74.728,324.719a.379.379,0,0,0,.29-.11.294.294,0,0,0,.032-.411L10.034,242.08a.4.4,0,0,0-.386-.137l-100.034,8.765a.434.434,0,0,0-.354.274.337.337,0,0,0,.193.356L74.535,324.664A.264.264,0,0,0,74.728,324.719ZM9.487,242.628,73.5,323.459-88.971,251.283Z" transform="translate(90.747 -241.936)" fill="#366"/>
      </g>
      <g id="Group_80" data-name="Group 80" transform="translate(349.79 231.065)">
        <path id="Path_847" data-name="Path 847" d="M478.466,474.778a.221.221,0,0,0,.129-.027l114.357-36.9a.4.4,0,0,0,.258-.274.3.3,0,0,0-.161-.329L426.26,330.426a.5.5,0,0,0-.483,0,.372.372,0,0,0-.161.384l52.463,143.749a.439.439,0,0,0,.193.219Zm113.52-37.334-113.3,36.54L426.775,331.632Z" transform="translate(-425.608 -330.365)" fill="#366"/>
      </g>
      <g id="Group_81" data-name="Group 81" transform="translate(238.219 250.625)">
        <path id="Path_848" data-name="Path 848" d="M454.282,483.184a.425.425,0,0,0,.354-.164.309.309,0,0,0-.1-.438L290.52,358.417a.5.5,0,0,0-.515-.027.3.3,0,0,0-.1.438l56.68,94.938a.33.33,0,0,0,.225.164l107.341,29.226A.22.22,0,0,0,454.282,483.184Zm-162.7-123.041L452.577,482.033,347.2,453.328Z" transform="translate(-289.854 -358.331)" fill="#366"/>
      </g>
      <g id="Group_82" data-name="Group 82" transform="translate(238.23 231.068)">
        <path id="Path_849" data-name="Path 849" d="M454.285,474.779a.676.676,0,0,0,.225-.055.294.294,0,0,0,.161-.384L402.24,330.619a.425.425,0,0,0-.451-.247L290.2,349.93a.4.4,0,0,0-.322.246.327.327,0,0,0,.129.356L454.027,474.7A.4.4,0,0,0,454.285,474.779ZM401.564,331.14l51.884,142.242-162.314-122.9Z" transform="translate(-289.867 -330.369)" fill="#366"/>
      </g>
      <g id="Group_83" data-name="Group 83" transform="translate(128.172 238.022)">
        <path id="Path_850" data-name="Path 850" d="M207.122,456.4h.032l115.934-7.834a.368.368,0,0,0,.354-.247.313.313,0,0,0-.129-.356L156.59,340.374a.5.5,0,0,0-.483,0,.309.309,0,0,0-.129.383l50.79,115.426A.377.377,0,0,0,207.122,456.4Zm114.872-8.464-114.582,7.752L157.2,341.606Z" transform="translate(-155.953 -340.312)" fill="#366"/>
      </g>
      <g id="Group_84" data-name="Group 84" transform="translate(128.198 237.969)">
        <path id="Path_851" data-name="Path 851" d="M323.094,448.519a.4.4,0,0,0,.258-.082.305.305,0,0,0,.1-.411l-56.68-94.938a.406.406,0,0,0-.29-.192L156.435,340.241a.367.367,0,0,0-.418.219.318.318,0,0,0,.129.411L322.869,448.464A.422.422,0,0,0,323.094,448.519Zm-56.937-94.965,55.778,93.459L157.819,341.118Z" transform="translate(-155.986 -340.236)" fill="#366"/>
      </g>
      <g id="Group_85" data-name="Group 85" transform="translate(90.475 251.315)">
        <path id="Path_852" data-name="Path 852" d="M132.841,500.216a.676.676,0,0,0,.225-.055l66.142-38.1a.277.277,0,0,0,.161-.219.3.3,0,0,0-.064-.274l-88.48-102.114a.429.429,0,0,0-.483-.11.393.393,0,0,0-.258.356l22.337,140.215a.4.4,0,0,0,.225.274A.473.473,0,0,0,132.841,500.216ZM198.4,461.677l-65.241,37.608L111.148,360.932Z" transform="translate(-110.086 -359.317)" fill="#366"/>
      </g>
      <g id="Group_86" data-name="Group 86" transform="translate(90.462 238.009)">
        <path id="Path_853" data-name="Path 853" d="M198.949,456.4a.264.264,0,0,0,.193-.055.314.314,0,0,0,.193-.411L148.545,340.5a.365.365,0,0,0-.225-.192.642.642,0,0,0-.322,0l-37.69,13.34a.284.284,0,0,0-.225.219.335.335,0,0,0,.064.3l88.48,102.114A.751.751,0,0,0,198.949,456.4ZM147.934,341.08l49.631,112.8-86.452-99.786Z" transform="translate(-110.07 -340.293)" fill="#366"/>
      </g>
      <g id="Group_87" data-name="Group 87" transform="translate(-100.745 249.389)">
        <path id="Path_854" data-name="Path 854" d="M91.394,499.389a.367.367,0,0,0,.322-.164.292.292,0,0,0-.032-.411L-56.694,356.681a.359.359,0,0,0-.322-.109.408.408,0,0,0-.322.164l-65.177,83.3a.258.258,0,0,0-.032.3.328.328,0,0,0,.257.219L91.3,499.389ZM-56.952,357.475,90.107,498.348l-211.656-58.316Z" transform="translate(122.582 -356.564)" fill="#366"/>
      </g>
      <g id="Group_88" data-name="Group 88" transform="translate(-35.599 249.369)">
        <path id="Path_855" data-name="Path 855" d="M105.515,499.38a.276.276,0,0,0,.161-.027A.324.324,0,0,0,105.9,499L83.564,358.781a.392.392,0,0,0-.386-.3L-42.9,356.535a.572.572,0,0,0-.386.192.339.339,0,0,0,.064.383L105.16,499.243A.487.487,0,0,0,105.515,499.38ZM82.823,359.165l22.112,138.818-146.9-140.736Z" transform="translate(43.315 -356.535)" fill="#366"/>
      </g>
      <g id="Group_89" data-name="Group 89" transform="translate(516.587 337.89)">
        <path id="Path_856" data-name="Path 856" d="M750.833,662.189a.428.428,0,0,0,.29-.11.3.3,0,0,0,.064-.411L629.33,483.27a.5.5,0,0,0-.483-.164.361.361,0,0,0-.29.356l13.2,125.78a.359.359,0,0,0,.193.274L750.64,662.134A.514.514,0,0,0,750.833,662.189ZM629.523,484.968,749.738,660.929,642.526,609.05Z" transform="translate(-628.558 -483.099)" fill="#366"/>
      </g>
      <g id="Group_90" data-name="Group 90" transform="translate(402.254 374.771)">
        <path id="Path_857" data-name="Path 857" d="M515.393,658.042a.22.22,0,0,0,.129-.027l102-32.623a.4.4,0,0,0,.258-.274.344.344,0,0,0-.129-.329L490.095,535.905a.445.445,0,0,0-.451-.027.315.315,0,0,0-.193.356l25.556,121.507a.4.4,0,0,0,.193.247A.518.518,0,0,0,515.393,658.042Zm101.193-33.061L515.715,657.248,490.449,537.083Z" transform="translate(-489.443 -535.828)" fill="#366"/>
      </g>
      <g id="Group_91" data-name="Group 91" transform="translate(402.253 337.934)">
        <path id="Path_858" data-name="Path 858" d="M617.39,609.589a.473.473,0,0,0,.193-.027.376.376,0,0,0,.225-.329l-13.2-125.78a.266.266,0,0,0-.193-.246.513.513,0,0,0-.354-.027l-114.357,36.9a.4.4,0,0,0-.257.274.344.344,0,0,0,.129.329l127.553,88.884C617.2,609.562,617.294,609.589,617.39,609.589ZM603.84,483.946l13.035,124.52-126.266-87.98Z" transform="translate(-489.442 -483.161)" fill="#366"/>
      </g>
      <g id="Group_92" data-name="Group 92" transform="translate(294.901 345.568)">
        <path id="Path_859" data-name="Path 859" d="M492.124,645.492a.429.429,0,0,0,.29-.109.276.276,0,0,0,.032-.438l-132.9-150.733a.5.5,0,0,0-.515-.11.332.332,0,0,0-.193.411l34.407,83.844a.576.576,0,0,0,.129.164l98.489,66.889A.4.4,0,0,0,492.124,645.492ZM360.451,496.4,489.9,643.219l-95.915-65.136Z" transform="translate(-358.821 -494.075)" fill="#366"/>
      </g>
      <g id="Group_93" data-name="Group 93" transform="translate(294.913 345.546)">
        <path id="Path_860" data-name="Path 860" d="M492.127,645.483a.334.334,0,0,0,.161-.027.339.339,0,0,0,.225-.383L466.957,523.565a.4.4,0,0,0-.257-.274L359.359,494.065a.4.4,0,0,0-.451.137.327.327,0,0,0,0,.411L491.8,645.346A.423.423,0,0,0,492.127,645.483Zm-25.91-121.562,25.2,119.864L360.292,495.078Z" transform="translate(-358.836 -494.044)" fill="#366"/>
      </g>
      <g id="Group_94" data-name="Group 94" transform="translate(146.524 353.437)">
        <path id="Path_861" data-name="Path 861" d="M178.721,584.642h0l182.753-2.657a.413.413,0,0,0,.386-.247.348.348,0,0,0-.193-.383L211.293,505.372a.512.512,0,0,0-.354-.027.385.385,0,0,0-.257.219L178.3,584.2a.265.265,0,0,0,.064.3A.562.562,0,0,0,178.721,584.642Zm181.336-3.314L179.3,583.957l32.025-77.791Z" transform="translate(-178.283 -505.327)" fill="#366"/>
      </g>
      <g id="Group_95" data-name="Group 95" transform="translate(178.947 345.563)">
        <path id="Path_862" data-name="Path 862" d="M368.5,578.6a.4.4,0,0,0,.257-.082.309.309,0,0,0,.129-.383l-34.439-83.844a.4.4,0,0,0-.418-.219L218.1,501.906a.359.359,0,0,0-.354.274.348.348,0,0,0,.193.383l150.373,75.983A.513.513,0,0,0,368.5,578.6Zm-34.7-83.817,33.956,82.694-148.314-74.97Z" transform="translate(-217.734 -494.068)" fill="#366"/>
      </g>
      <g id="Group_96" data-name="Group 96" transform="translate(66.792 391.556)">
        <path id="Path_863" data-name="Path 863" d="M81.682,607.707h.032l79.757-6.684a.392.392,0,0,0,.322-.192.3.3,0,0,0-.032-.329L128.03,559.964a.447.447,0,0,0-.644,0L81.36,607.159a.29.29,0,0,0-.032.383A.458.458,0,0,0,81.682,607.707Zm79.017-7.313L82.583,606.94,127.644,560.7Z" transform="translate(-81.27 -559.827)" fill="#366"/>
      </g>
      <g id="Group_97" data-name="Group 97" transform="translate(112.8 353.438)">
        <path id="Path_864" data-name="Path 864" d="M171.411,584.642h.064a.382.382,0,0,0,.322-.219l32.379-78.64a.31.31,0,0,0-.129-.383.44.44,0,0,0-.483,0l-66.142,38.1a.277.277,0,0,0-.161.219.234.234,0,0,0,.064.247l33.731,40.539A.561.561,0,0,0,171.411,584.642Zm31.607-78.12-31.735,77.051-33.055-39.717Z" transform="translate(-137.249 -505.328)" fill="#366"/>
      </g>
      <g id="Group_98" data-name="Group 98" transform="translate(-100.766 332.705)">
        <path id="Path_865" data-name="Path 865" d="M45.363,582.416a.405.405,0,0,0,.354-.192.31.31,0,0,0-.129-.411L-121.972,475.755a.443.443,0,0,0-.515.027.331.331,0,0,0-.064.438l69.876,90.692a.34.34,0,0,0,.257.137l97.653,15.367ZM-120.62,477.426,43.722,581.457l-95.786-15.065Z" transform="translate(122.608 -475.685)" fill="#366"/>
      </g>
      <g id="Group_99" data-name="Group 99" transform="translate(-100.756 332.731)">
        <path id="Path_866" data-name="Path 866" d="M45.366,582.427a.479.479,0,0,0,.322-.137L91.714,535.1a.225.225,0,0,0,.064-.3.327.327,0,0,0-.257-.219l-213.587-58.836a.447.447,0,0,0-.483.164.32.32,0,0,0,.129.438l167.529,106A.4.4,0,0,0,45.366,582.427ZM90.684,535.04,45.269,581.605-120.007,477Z" transform="translate(122.595 -475.721)" fill="#366"/>
      </g>
      <g id="Group_100" data-name="Group 100" transform="translate(583.508 516.294)">
        <path id="Path_867" data-name="Path 867" d="M884.684,806.213a.425.425,0,0,0,.386-.219.325.325,0,0,0-.161-.411L765.563,738.228a.451.451,0,0,0-.515.055l-54.942,46.264a.3.3,0,0,0-.1.356.339.339,0,0,0,.322.219L884.62,806.213ZM765.4,738.967l117.576,66.341-171.713-20.79Z" transform="translate(-709.984 -738.172)" fill="#366"/>
      </g>
      <g id="Group_101" data-name="Group 101" transform="translate(503.857 463.705)">
        <path id="Path_868" data-name="Path 868" d="M693.132,762.521a.629.629,0,0,0,.322-.11.3.3,0,0,0,.065-.356L639.8,663.173a.4.4,0,0,0-.386-.192.368.368,0,0,0-.354.247l-25.974,80.119a.316.316,0,0,0,.29.411l79.693,18.763ZM639.51,664.3l52.882,97.348-78.47-18.462Z" transform="translate(-613.068 -662.982)" fill="#366"/>
      </g>
      <g id="Group_102" data-name="Group 102" transform="translate(529.783 463.657)">
        <path id="Path_869" data-name="Path 869" d="M698.751,762.5a.428.428,0,0,0,.29-.109l54.942-46.264a.378.378,0,0,0,.129-.3.4.4,0,0,0-.193-.246L645.226,662.961a.442.442,0,0,0-.483.055.312.312,0,0,0-.1.383l53.719,98.882a.406.406,0,0,0,.29.192A.133.133,0,0,0,698.751,762.5Zm54.3-46.537L698.88,761.569,645.9,664.111Z" transform="translate(-644.614 -662.913)" fill="#366"/>
      </g>
      <g id="Group_103" data-name="Group 103" transform="translate(368.362 496.289)">
        <path id="Path_870" data-name="Path 870" d="M448.631,781.016h.064L584.1,757.761a.388.388,0,0,0,.322-.274.333.333,0,0,0-.161-.356l-76.023-47.5a.373.373,0,0,0-.29-.055.459.459,0,0,0-.258.137l-59.416,70.751a.29.29,0,0,0,0,.383A.47.47,0,0,0,448.631,781.016Zm134.441-23.776-133.54,22.926L508.111,710.4Z" transform="translate(-448.205 -709.569)" fill="#366"/>
      </g>
      <g id="Group_104" data-name="Group 104" transform="translate(427.809 463.676)">
        <path id="Path_871" data-name="Path 871" d="M596.956,743.746a.22.22,0,0,0,.129-.027.383.383,0,0,0,.258-.219l25.974-80.119a.327.327,0,0,0-.129-.356.45.45,0,0,0-.418-.055L520.8,695.592a.4.4,0,0,0-.257.274.3.3,0,0,0,.161.329l76.023,47.5A.424.424,0,0,0,596.956,743.746Zm25.363-79.9L596.7,742.814l-74.929-46.839Z" transform="translate(-520.538 -662.941)" fill="#366"/>
      </g>
      <g id="Group_105" data-name="Group 105" transform="translate(329.323 429.426)">
        <path id="Path_872" data-name="Path 872" d="M440.169,752.282a.4.4,0,0,0,.258-.082.343.343,0,0,0,.129-.329l-39.074-137.64a.394.394,0,0,0-.451-.247.332.332,0,0,0-.322.383L417.124,745.3a.351.351,0,0,0,.257.274l22.659,6.711Zm-38.012-132.82,37.465,131.943L417.9,744.969Z" transform="translate(-400.704 -613.972)" fill="#366"/>
      </g>
      <g id="Group_106" data-name="Group 106" transform="translate(329.308 429.416)">
        <path id="Path_873" data-name="Path 873" d="M440.166,752.278a.423.423,0,0,0,.322-.137L499.9,681.389a.308.308,0,0,0-.064-.466L401.35,614.035a.5.5,0,0,0-.483-.027c-.129.082-.225.219-.161.356L439.78,752a.361.361,0,0,0,.322.247C440.134,752.278,440.134,752.278,440.166,752.278Zm58.868-71.025-58.675,69.875L401.768,615.185Z" transform="translate(-400.685 -613.958)" fill="#366"/>
      </g>
      <g id="Group_107" data-name="Group 107" transform="translate(146.569 432.085)">
        <path id="Path_874" data-name="Path 874" d="M202.388,760.3h.032l175.511-13.586a.4.4,0,0,0,.354-.247.313.313,0,0,0-.129-.356L178.988,617.838a.522.522,0,0,0-.451-.027.357.357,0,0,0-.193.356L202,760.026C202,760.19,202.162,760.3,202.388,760.3Zm174.449-14.189L202.742,759.587,179.278,618.852Z" transform="translate(-178.338 -617.773)" fill="#366"/>
      </g>
      <g id="Group_108" data-name="Group 108" transform="translate(146.518 429.411)">
        <path id="Path_875" data-name="Path 875" d="M377.887,745.565a.511.511,0,0,0,.193-.055.3.3,0,0,0,.193-.329l-16.415-130.93a.4.4,0,0,0-.418-.3l-182.753,2.657a.449.449,0,0,0-.386.246.309.309,0,0,0,.129.383L377.6,745.51A1.372,1.372,0,0,0,377.887,745.565Zm-16.769-130.93,16.254,129.834-197.494-127.2Z" transform="translate(-178.276 -613.95)" fill="#366"/>
      </g>
      <g id="Group_109" data-name="Group 109" transform="translate(66.813 438.73)">
        <path id="Path_876" data-name="Path 876" d="M185.1,763.156a.47.47,0,0,0,.354-.164.353.353,0,0,0,0-.356L82.041,627.432a.436.436,0,0,0-.483-.137.333.333,0,0,0-.257.356l13.422,129.2a.357.357,0,0,0,.354.3l90.024,6ZM82.2,628.966,184.3,762.416l-88.834-5.889Z" transform="translate(-81.295 -627.274)" fill="#366"/>
      </g>
      <g id="Group_110" data-name="Group 110" transform="translate(66.773 432.068)">
        <path id="Path_877" data-name="Path 877" d="M185.092,760.292a.22.22,0,0,0,.129-.027.351.351,0,0,0,.257-.356L161.821,618.05a.416.416,0,0,0-.451-.3l-79.757,6.683a.392.392,0,0,0-.322.192.254.254,0,0,0,.032.329l103.414,135.2A.561.561,0,0,0,185.092,760.292ZM161.081,618.461l23.335,140.024L82.354,625.062Z" transform="translate(-81.247 -617.749)" fill="#366"/>
      </g>
      <g id="Group_111" data-name="Group 111" transform="translate(-39.685 423.391)">
        <path id="Path_878" data-name="Path 878" d="M-47.9,773.108h.1L72.121,750.592a.509.509,0,0,0,.29-.192.308.308,0,0,0-.032-.329L-38.728,605.5a.4.4,0,0,0-.451-.137.338.338,0,0,0-.29.3l-8.819,167.086a.3.3,0,0,0,.129.274A.4.4,0,0,0-47.9,773.108ZM71.348,750.017-47.483,772.341l8.755-165.58Z" transform="translate(48.287 -605.344)" fill="#366"/>
      </g>
      <g id="Group_112" data-name="Group 112" transform="translate(-30.875 423.378)">
        <path id="Path_879" data-name="Path 879" d="M73.934,750.587a.22.22,0,0,0,.129-.027.333.333,0,0,0,.257-.356L60.9,621c0-.164-.161-.274-.322-.3l-97.653-15.366a.458.458,0,0,0-.418.137.29.29,0,0,0,0,.384L73.612,750.422A.367.367,0,0,0,73.934,750.587ZM60.126,621.328,73.387,748.916-36.3,606.153Z" transform="translate(37.567 -605.324)" fill="#366"/>
      </g>
      <g id="Group_113" data-name="Group 113" transform="translate(704.261 583.651)">
        <path id="Path_880" data-name="Path 880" d="M984.467,925.3a.47.47,0,0,0,.354-.164.29.29,0,0,0,0-.384l-73.609-90.144a.5.5,0,0,0-.354-.137.367.367,0,0,0-.322.164l-53.558,72.34a.307.307,0,0,0-.032.329.341.341,0,0,0,.289.192L984.4,925.3Zm-73.61-89.87L983.6,924.481,857.976,906.869Z" transform="translate(-856.911 -834.474)" fill="#366"/>
      </g>
      <g id="Group_114" data-name="Group 114" transform="translate(583.544 562.556)">
        <path id="Path_881" data-name="Path 881" d="M769.627,901.008h0l61.54-2.6a.377.377,0,0,0,.354-.219.3.3,0,0,0-.1-.356L710.694,804.4a.5.5,0,0,0-.515-.027.3.3,0,0,0-.1.438L769.3,900.816C769.337,900.953,769.466,901.008,769.627,901.008Zm60.51-3.232-60.285,2.547L711.82,806.207Z" transform="translate(-710.028 -804.313)" fill="#366"/>
      </g>
      <g id="Group_115" data-name="Group 115" transform="translate(583.534 562.554)">
        <path id="Path_882" data-name="Path 882" d="M831.132,898.433h.064a.377.377,0,0,0,.29-.164l53.558-72.34a.308.308,0,0,0,.032-.329.352.352,0,0,0-.322-.192L710.466,804.317a.408.408,0,0,0-.418.192.342.342,0,0,0,.1.411l120.73,93.431A.684.684,0,0,0,831.132,898.433Zm52.882-72.422-52.978,71.546-119.411-92.39Z" transform="translate(-710.016 -804.311)" fill="#366"/>
      </g>
      <g id="Group_116" data-name="Group 116" transform="translate(471.988 543.786)">
        <path id="Path_883" data-name="Path 883" d="M745.447,892.942a.386.386,0,0,0,.354-.192.3.3,0,0,0-.064-.411L606.821,777.57a.452.452,0,0,0-.386-.082.377.377,0,0,0-.29.219l-31.832,80.913a.283.283,0,0,0,.032.274.5.5,0,0,0,.258.164L745.35,892.942Zm-138.754-114.5,137.4,113.536L575.182,858.456Z" transform="translate(-574.292 -777.478)" fill="#366"/>
      </g>
      <g id="Group_117" data-name="Group 117" transform="translate(503.817 543.807)">
        <path id="Path_884" data-name="Path 884" d="M752.346,892.951a.528.528,0,0,0,.225-.055.344.344,0,0,0,.129-.438l-59.222-96.006a.4.4,0,0,0-.257-.164l-79.693-18.763a.417.417,0,0,0-.451.164.3.3,0,0,0,.064.411L752.056,892.868A.437.437,0,0,0,752.346,892.951ZM692.834,796.89,750.8,890.869,614.814,778.51Z" transform="translate(-613.02 -777.507)" fill="#366"/>
      </g>
      <g id="Group_118" data-name="Group 118" transform="translate(368.426 567.1)">
        <path id="Path_885" data-name="Path 885" d="M471.755,915.013a.676.676,0,0,0,.225-.055l80.5-45.907a.36.36,0,0,0,.193-.274.3.3,0,0,0-.193-.274L448.9,810.872a.443.443,0,0,0-.451,0,.332.332,0,0,0-.161.356L471.4,914.766a.38.38,0,0,0,.225.246C471.658,914.985,471.69,915.013,471.755,915.013Zm79.757-46.264-79.468,45.332-22.82-102.251Z" transform="translate(-448.283 -810.81)" fill="#366"/>
      </g>
      <g id="Group_119" data-name="Group 119" transform="translate(368.426 543.789)">
        <path id="Path_886" data-name="Path 886" d="M552.252,859.088a.221.221,0,0,0,.129-.027.328.328,0,0,0,.257-.219l31.832-80.914a.393.393,0,0,0-.064-.329.492.492,0,0,0-.386-.11L448.613,800.745a.387.387,0,0,0-.322.274.332.332,0,0,0,.161.356l103.575,57.631A.318.318,0,0,0,552.252,859.088Zm31.221-80.8-31.446,79.927-102.32-56.946Z" transform="translate(-448.283 -777.482)" fill="#366"/>
      </g>
      <g id="Group_120" data-name="Group 120" transform="translate(250.974 560.368)">
        <path id="Path_887" data-name="Path 887" d="M305.772,945.263h.1L446.393,912.12a.5.5,0,0,0,.258-.164.282.282,0,0,0,.032-.274L400.915,801.4a.377.377,0,0,0-.354-.219.447.447,0,0,0-.386.164L305.418,944.77a.338.338,0,0,0,.032.384A.632.632,0,0,0,305.772,945.263Zm140.009-33.719L306.609,944.359l93.822-142.051Z" transform="translate(-305.373 -801.186)" fill="#366"/>
      </g>
      <g id="Group_121" data-name="Group 121" transform="translate(345.717 560.401)">
        <path id="Path_888" data-name="Path 888" d="M466.832,912.134h.1a.358.358,0,0,0,.29-.383l-23.11-103.539a.359.359,0,0,0-.257-.246l-22.659-6.711a.458.458,0,0,0-.418.082.3.3,0,0,0-.1.356L466.446,911.97A.673.673,0,0,0,466.832,912.134ZM443.369,808.486l22.08,98.937L421.708,802.077Z" transform="translate(-420.652 -801.233)" fill="#366"/>
      </g>
      <g id="Group_122" data-name="Group 122" transform="translate(170.226 573.937)">
        <path id="Path_889" data-name="Path 889" d="M288.27,951.095a.379.379,0,0,0,.29-.11.3.3,0,0,0,.064-.383L207.869,820.768a.447.447,0,0,0-.483-.164.332.332,0,0,0-.258.383l19.119,107.729a.4.4,0,0,0,.225.274l61.669,22.077C288.174,951.067,288.206,951.095,288.27,951.095ZM208.256,822.877,287.4,950.054l-60.413-21.639Z" transform="translate(-207.123 -820.586)" fill="#366"/>
      </g>
      <g id="Group_123" data-name="Group 123" transform="translate(170.216 560.341)">
        <path id="Path_890" data-name="Path 890" d="M288.268,945.252a.387.387,0,0,0,.354-.164l94.756-143.42a.352.352,0,0,0,0-.356.489.489,0,0,0-.386-.164L207.481,814.733a.444.444,0,0,0-.322.164.3.3,0,0,0,0,.329l80.755,129.807A.377.377,0,0,0,288.268,945.252Zm94.016-143.365-94.016,142.3L208.125,815.39Z" transform="translate(-207.111 -801.147)" fill="#366"/>
      </g>
      <g id="Group_124" data-name="Group 124" transform="translate(3.36 567.95)">
        <path id="Path_891" data-name="Path 891" d="M190.433,926.417a.471.471,0,0,0,.354-.164.292.292,0,0,0-.032-.384L81.644,812.169a.347.347,0,0,0-.322-.137.48.48,0,0,0-.322.137L4.172,896.889a.309.309,0,0,0-.064.329.441.441,0,0,0,.29.219l185.939,28.98ZM81.354,812.935,189.435,925.6,5.234,896.862Z" transform="translate(-4.089 -812.026)" fill="#366"/>
      </g>
      <g id="Group_125" data-name="Group 125" transform="translate(80.195 567.95)">
        <path id="Path_892" data-name="Path 892" d="M207.087,926.417a.333.333,0,0,0,.161-.027.324.324,0,0,0,.225-.356L188.355,818.3A.419.419,0,0,0,188,818l-89.992-5.971a.362.362,0,0,0-.386.192.338.338,0,0,0,.032.383l109.111,113.7A.508.508,0,0,0,207.087,926.417ZM187.647,818.66l18.829,106.223L98.91,812.771Z" transform="translate(-97.577 -812.026)" fill="#366"/>
      </g>
      <g id="Group_126" data-name="Group 126" transform="translate(-39.737 590.493)">
        <path id="Path_893" data-name="Path 893" d="M-24.288,919.095a.527.527,0,0,0,.225-.055l19.44-11.97a.286.286,0,0,0,.1-.438l-43.065-62.205a.444.444,0,0,0-.515-.137.315.315,0,0,0-.225.411l23.625,74.148a.416.416,0,0,0,.257.246Zm18.925-12.408L-24.03,918.164l-22.691-71.217Z" transform="translate(48.351 -844.257)" fill="#366"/>
      </g>
      <g id="Group_127" data-name="Group 127" transform="translate(-39.688 567.95)">
        <path id="Path_894" data-name="Path 894" d="M-4.837,897.437a.422.422,0,0,0,.322-.137l76.86-84.721a.338.338,0,0,0,.032-.383.474.474,0,0,0-.418-.164L-47.966,834.547a.509.509,0,0,0-.29.192.258.258,0,0,0,.032.3l43.065,62.205a.311.311,0,0,0,.322.192Zm75.863-84.529-75.8,83.6L-47.258,835.15Z" transform="translate(48.291 -812.026)" fill="#366"/>
      </g>
      <g id="Group_128" data-name="Group 128" transform="translate(704.246 655.952)">
        <path id="Path_895" data-name="Path 895" d="M1101.492,1039.753a.4.4,0,0,0,.386-.247.332.332,0,0,0-.193-.411l-244.2-101.21a.449.449,0,0,0-.515.11.3.3,0,0,0,.032.438h0l68.138,71.628a.342.342,0,0,0,.225.11L1101.4,1039.7C1101.46,1039.753,1101.492,1039.753,1101.492,1039.753ZM858.745,939.2l239.786,99.375-172.839-29.007Z" transform="translate(-856.893 -937.847)" fill="#366"/>
      </g>
      <g id="Group_129" data-name="Group 129" transform="translate(704.278 655.984)">
        <path id="Path_896" data-name="Path 896" d="M1101.5,1039.767a.47.47,0,0,0,.354-.164.331.331,0,0,0-.064-.438L984.76,955.785l-.193-.082L857.432,937.9a.458.458,0,0,0-.418.137.3.3,0,0,0,.032.438h0c.032.027.1.055.129.082l244.2,101.183C1101.4,1039.767,1101.435,1039.767,1101.5,1039.767ZM984.31,956.361l114.422,81.544L859.943,938.94Z" transform="translate(-856.932 -937.892)" fill="#366"/>
      </g>
      <g id="Group_130" data-name="Group 130" transform="translate(609.28 658.575)">
        <path id="Path_897" data-name="Path 897" d="M741.763,1015.571h0l163.151-4.218a.45.45,0,0,0,.386-.246.372.372,0,0,0-.161-.384l-129.71-69.08a.513.513,0,0,0-.354-.027.432.432,0,0,0-.258.192l-33.441,73.3a.308.308,0,0,0,.032.329A.443.443,0,0,0,741.763,1015.571Zm161.8-4.876-161.188,4.191L775.4,942.464Z" transform="translate(-741.342 -941.597)" fill="#366"/>
      </g>
      <g id="Group_131" data-name="Group 131" transform="translate(642.748 655.991)">
        <path id="Path_898" data-name="Path 898" d="M912.137,1010.242a.378.378,0,0,0,.289-.11.3.3,0,0,0,0-.438l-68.17-71.655a.478.478,0,0,0-.322-.137l-61.508,2.6a.368.368,0,0,0-.354.247.372.372,0,0,0,.161.383l129.71,69.08C912.008,1010.215,912.073,1010.242,912.137,1010.242Zm-68.363-71.655,66.529,69.929L783.746,941.107Z" transform="translate(-782.065 -937.902)" fill="#366"/>
      </g>
      <g id="Group_132" data-name="Group 132" transform="translate(471.984 624.734)">
        <path id="Path_899" data-name="Path 899" d="M628.482,1052.961a.53.53,0,0,0,.225-.055L712.23,1001a.318.318,0,0,0,.161-.247.326.326,0,0,0-.129-.274L574.956,893.3a.439.439,0,0,0-.483-.027.294.294,0,0,0-.161.383L628.1,1052.742a.327.327,0,0,0,.257.219C628.385,1052.934,628.449,1052.961,628.482,1052.961Zm82.879-52.289-82.654,51.386L575.471,894.613Z" transform="translate(-574.288 -893.212)" fill="#366"/>
      </g>
      <g id="Group_133" data-name="Group 133" transform="translate(471.987 624.703)">
        <path id="Path_900" data-name="Path 900" d="M712.005,1001.015h.1a.441.441,0,0,0,.29-.219l33.441-73.3a.282.282,0,0,0-.032-.274.375.375,0,0,0-.258-.164L574.8,893.176a.443.443,0,0,0-.451.164.279.279,0,0,0,.1.411l137.306,107.182A.4.4,0,0,0,712.005,1001.015ZM744.9,927.634l-33.055,72.477L576.083,894.162Z" transform="translate(-574.291 -893.169)" fill="#366"/>
      </g>
      <g id="Group_134" data-name="Group 134" transform="translate(391.487 670.597)">
        <path id="Path_901" data-name="Path 901" d="M611.034,1072.671a.478.478,0,0,0,.322-.137.305.305,0,0,0-.032-.466l-134.28-113.18a.5.5,0,0,0-.515-.055.325.325,0,0,0-.161.411l23.85,49.824a.766.766,0,0,0,.161.164l110.43,63.356A.381.381,0,0,0,611.034,1072.671ZM477.848,960.559l129.839,109.428-106.793-61.274Z" transform="translate(-476.342 -958.786)" fill="#366"/>
      </g>
      <g id="Group_135" data-name="Group 135" transform="translate(391.512 624.719)">
        <path id="Path_902" data-name="Path 902" d="M611.039,1052.955a.517.517,0,0,0,.193-.055.348.348,0,0,0,.193-.384L557.642,893.429a.327.327,0,0,0-.257-.219.513.513,0,0,0-.354.027l-80.5,45.908a.281.281,0,0,0-.161.247.327.327,0,0,0,.129.274l134.28,113.18A.426.426,0,0,0,611.039,1052.955ZM557,894.059l53.2,157.362L477.37,939.474Z" transform="translate(-476.372 -893.192)" fill="#366"/>
      </g>
      <g id="Group_136" data-name="Group 136" transform="translate(251.007 703.728)">
        <path id="Path_903" data-name="Path 903" d="M396.48,1104.166h0a.422.422,0,0,0,.322-.137l73.674-80.639a.319.319,0,0,0,.064-.329.5.5,0,0,0-.322-.219L305.844,1006.16a.388.388,0,0,0-.386.164.338.338,0,0,0,.032.384L396.19,1104A.316.316,0,0,0,396.48,1104.166Zm72.9-80.694-72.9,79.818-89.767-96.307Z" transform="translate(-305.413 -1006.155)" fill="#366"/>
      </g>
      <g id="Group_137" data-name="Group 137" transform="translate(250.982 670.601)">
        <path id="Path_904" data-name="Path 904" d="M470.148,1009.29a.423.423,0,0,0,.322-.137.319.319,0,0,0,.064-.329L446.685,959a.4.4,0,0,0-.483-.192L305.678,991.951c-.193.055-.322.192-.29.356a.334.334,0,0,0,.354.3l164.374,16.681Zm-24.107-49.742,23.464,49L307.866,992.143Z" transform="translate(-305.383 -958.791)" fill="#366"/>
      </g>
      <g id="Group_138" data-name="Group 138" transform="translate(160.459 681.673)">
        <path id="Path_905" data-name="Path 905" d="M376.853,1094.688a.425.425,0,0,0,.354-.164.3.3,0,0,0-.064-.411l-152.369-119.4a.451.451,0,0,0-.386-.082.44.44,0,0,0-.29.219l-28.839,77.572a.282.282,0,0,0,.032.274.4.4,0,0,0,.258.165l181.208,41.826ZM224.678,975.563l150.7,118.083-179.212-41.361Z" transform="translate(-195.238 -974.622)" fill="#366"/>
      </g>
      <g id="Group_139" data-name="Group 139" transform="translate(189.327 681.663)">
        <path id="Path_906" data-name="Path 906" d="M383.111,1094.683a.4.4,0,0,0,.258-.082.3.3,0,0,0,.032-.465l-90.668-97.321a.316.316,0,0,0-.161-.11L230.9,974.627a.436.436,0,0,0-.483.137.331.331,0,0,0,.064.438l152.369,119.4A.4.4,0,0,0,383.111,1094.683Zm-90.958-97.376,87.45,93.787L232.737,976Z" transform="translate(-230.364 -974.606)" fill="#366"/>
      </g>
      <g id="Group_140" data-name="Group 140" transform="translate(3.383 652.679)">
        <path id="Path_907" data-name="Path 907" d="M161.632,1040.4a.4.4,0,0,0,.354-.192.3.3,0,0,0-.1-.411L4.789,933.247a.452.452,0,0,0-.547.027.276.276,0,0,0-.032.438l78.309,88.09a.583.583,0,0,0,.225.137l78.824,18.461ZM6.752,935.466l153.077,103.813-76.8-17.969Z" transform="translate(-4.117 -933.168)" fill="#366"/>
      </g>
      <g id="Group_141" data-name="Group 141" transform="translate(3.348 652.671)">
        <path id="Path_908" data-name="Path 908" d="M161.624,1040.4a.277.277,0,0,0,.129-.028.327.327,0,0,0,.258-.219l28.839-77.572a.282.282,0,0,0-.032-.274.5.5,0,0,0-.257-.164l-186-28.98a.458.458,0,0,0-.451.192.318.318,0,0,0,.129.411l157.1,106.552A.584.584,0,0,0,161.624,1040.4Zm28.292-77.654L161.4,1039.466,6,934.092Z" transform="translate(-4.074 -933.156)" fill="#366"/>
      </g>
      <g id="Group_142" data-name="Group 142" transform="translate(-61.041 664.636)">
        <path id="Path_909" data-name="Path 909" d="M68.844,1027.078a.425.425,0,0,0,.386-.219.3.3,0,0,0-.1-.384l-97.749-76.12a.408.408,0,0,0-.354-.082.478.478,0,0,0-.29.164l-44.964,71.9a.3.3,0,0,0,0,.329.367.367,0,0,0,.322.164l142.745,4.246Zm-97.62-75.9,96.558,75.216L-73.193,1022.2Z" transform="translate(74.272 -950.263)" fill="#366"/>
      </g>
      <g id="Group_143" data-name="Group 143" transform="translate(-16.061 652.673)">
        <path id="Path_910" data-name="Path 910" d="M78.593,1021.937a.4.4,0,0,0,.257-.082.333.333,0,0,0,.064-.466L.606,933.3a.457.457,0,0,0-.547-.082l-19.44,11.97a.317.317,0,0,0-.161.246.326.326,0,0,0,.129.274l97.749,76.12A.312.312,0,0,0,78.593,1021.937ZM.22,933.984l75.412,84.83L-18.48,945.488Z" transform="translate(19.542 -933.158)" fill="#366"/>
      </g>
      <g id="Group_144" data-name="Group 144" transform="translate(904.643 757.212)">
        <path id="Path_911" data-name="Path 911" d="M1101.156,1227.7a.474.474,0,0,0,.193-.027l158.742-68.314a.4.4,0,0,0,.225-.274.33.33,0,0,0-.161-.3l-114.969-76.093a.471.471,0,0,0-.386-.054.358.358,0,0,0-.257.246l-43.805,144.406a.313.313,0,0,0,.129.356A1.085,1.085,0,0,0,1101.156,1227.7Zm158-68.724-157.39,67.738,43.419-143.173Z" transform="translate(-1100.726 -1082.623)" fill="#366"/>
      </g>
      <g id="Group_145" data-name="Group 145" transform="translate(766.286 727.652)">
        <path id="Path_912" data-name="Path 912" d="M1071.167,1215a.422.422,0,0,0,.322-.137.29.29,0,0,0,0-.383l-132.22-173.961a.4.4,0,0,0-.451-.137.343.343,0,0,0-.29.329L932.38,1184.4a.4.4,0,0,0,.29.356l138.368,30.267C1071.07,1215,1071.1,1215,1071.167,1215Zm-131.9-173.194,130.965,172.318-137.049-29.966Z" transform="translate(-932.38 -1040.36)" fill="#366"/>
      </g>
      <g id="Group_146" data-name="Group 146" transform="translate(772.426 727.666)">
        <path id="Path_913" data-name="Path 913" d="M1072.5,1215.006h.064a.362.362,0,0,0,.322-.247l43.8-144.406a.3.3,0,0,0-.064-.274.5.5,0,0,0-.257-.164l-176.026-29.528a.459.459,0,0,0-.418.137.29.29,0,0,0,0,.384l132.221,173.961A.445.445,0,0,0,1072.5,1215.006Zm43.29-144.488-43.451,143.311L941.114,1041.209Z" transform="translate(-939.85 -1040.38)" fill="#366"/>
      </g>
      <g id="Group_147" data-name="Group 147" transform="translate(583.302 731.897)">
        <path id="Path_914" data-name="Path 914" d="M893.137,1186.557a.471.471,0,0,0,.354-.164.3.3,0,0,0-.064-.411l-157-139.448a.4.4,0,0,0-.386-.082.409.409,0,0,0-.29.246l-26.006,97.43a.345.345,0,0,0,.29.411l182.978,42.046A.22.22,0,0,1,893.137,1186.557Zm-156.779-139.12,155.491,138.133-181.24-41.635Z" transform="translate(-709.734 -1046.429)" fill="#366"/>
      </g>
      <g id="Group_148" data-name="Group 148" transform="translate(609.315 727.646)">
        <path id="Path_915" data-name="Path 915" d="M898.775,1184.73a.22.22,0,0,0,.129-.027.329.329,0,0,0,.258-.3l6.148-143.694a.28.28,0,0,0-.129-.246.66.66,0,0,0-.29-.11l-163.119,4.218a.377.377,0,0,0-.354.219.264.264,0,0,0,.1.356l157,139.448C898.55,1184.7,898.646,1184.73,898.775,1184.73Zm5.7-143.694-6.083,142.516L742.672,1045.227Z" transform="translate(-741.385 -1040.351)" fill="#366"/>
      </g>
      <g id="Group_149" data-name="Group 149" transform="translate(525.747 783.821)">
        <path id="Path_916" data-name="Path 916" d="M676.119,1188.109a.442.442,0,0,0,.29-.109l21.533-21.283a.3.3,0,0,0-.032-.466l-57.516-45.5a.5.5,0,0,0-.515-.027.285.285,0,0,0-.129.411l35.984,66.78a.352.352,0,0,0,.322.192ZM697.1,1166.5l-20.857,20.626-34.89-64.725Z" transform="translate(-639.703 -1120.668)" fill="#366"/>
      </g>
      <g id="Group_150" data-name="Group 150" transform="translate(525.824 731.857)">
        <path id="Path_917" data-name="Path 917" d="M697.668,1144.494a.279.279,0,0,0,.129-.027.408.408,0,0,0,.29-.246l26.006-97.43a.332.332,0,0,0-.161-.356.443.443,0,0,0-.451,0l-83.523,51.906a.318.318,0,0,0-.161.246.326.326,0,0,0,.129.274l57.516,45.5A.206.206,0,0,0,697.668,1144.494Zm25.362-96.937-25.62,95.951L640.763,1098.7Z" transform="translate(-639.797 -1046.372)" fill="#366"/>
      </g>
      <g id="Group_151" data-name="Group 151" transform="translate(397.949 720.447)">
        <path id="Path_918" data-name="Path 918" d="M648.418,1160.874a.4.4,0,0,0,.354-.192.339.339,0,0,0-.064-.383L502.293,1030.163a.44.44,0,0,0-.418-.082c-.161.055-.257.164-.257.274L484.2,1150.328a.347.347,0,0,0,.1.247.454.454,0,0,0,.29.137l163.827,10.162ZM502.293,1031.122,647.42,1160.107l-162.379-10.08Z" transform="translate(-484.205 -1030.059)" fill="#366"/>
      </g>
      <g id="Group_152" data-name="Group 152" transform="translate(415.333 720.441)">
        <path id="Path_919" data-name="Path 919" d="M652.186,1160.871a.67.67,0,0,0,.225-.055.308.308,0,0,0,.129-.438l-35.984-66.78a.287.287,0,0,0-.129-.137L506,1030.106a.5.5,0,0,0-.547.055.305.305,0,0,0,.032.465L651.9,1160.761A.634.634,0,0,0,652.186,1160.871Zm-36.306-66.917,34.954,64.835L508.669,1032.406Z" transform="translate(-505.357 -1030.05)" fill="#366"/>
      </g>
      <g id="Group_153" data-name="Group 153" transform="translate(318.47 801.065)">
        <path id="Path_920" data-name="Path 920" d="M387.864,1220.034a.473.473,0,0,0,.193-.027l79.5-34.7a.4.4,0,0,0,.225-.274.378.378,0,0,0-.129-.3l-56.261-39.334a.471.471,0,0,0-.386-.055.36.36,0,0,0-.257.247l-23.238,74.038a.313.313,0,0,0,.129.356A.423.423,0,0,0,387.864,1220.034Zm78.759-35.115-78.148,34.129,22.852-72.778Z" transform="translate(-387.499 -1145.322)" fill="#366"/>
      </g>
      <g id="Group_154" data-name="Group 154" transform="translate(341.672 720.416)">
        <path id="Path_921" data-name="Path 921" d="M472.393,1150.671a.333.333,0,0,0,.161-.027.455.455,0,0,0,.257-.274L490.224,1030.4a.306.306,0,0,0-.258-.356.457.457,0,0,0-.483.11l-73.674,80.64a.308.308,0,0,0,.064.466l56.261,39.334A.405.405,0,0,0,472.393,1150.671Zm16.833-119.124-17.155,118.111-55.392-38.731Z" transform="translate(-415.731 -1030.013)" fill="#366"/>
      </g>
      <g id="Group_155" data-name="Group 155" transform="translate(151.886 759.227)">
        <path id="Path_922" data-name="Path 922" d="M351.757,1202.054a.425.425,0,0,0,.386-.219.31.31,0,0,0-.129-.384L194.045,1085.587a.462.462,0,0,0-.418-.055.436.436,0,0,0-.257.3l-8.562,112.906a.347.347,0,0,0,.1.246.379.379,0,0,0,.29.11l166.563,2.958ZM194.142,1086.546l156.489,114.8-164.986-2.931Z" transform="translate(-184.808 -1085.504)" fill="#366"/>
      </g>
      <g id="Group_156" data-name="Group 156" transform="translate(160.458 759.211)">
        <path id="Path_923" data-name="Path 923" d="M353.615,1202.048a.276.276,0,0,0,.129-.028.359.359,0,0,0,.258-.246l23.238-74.038c.064-.192-.064-.356-.29-.411L195.742,1085.5a.382.382,0,0,0-.451.164.275.275,0,0,0,.1.411l157.969,115.864A.313.313,0,0,0,353.615,1202.048ZM376.37,1127.9l-22.981,73.189L197.255,1086.566Z" transform="translate(-195.237 -1085.481)" fill="#366"/>
      </g>
      <g id="Group_157" data-name="Group 157" transform="translate(76.442 740.761)">
        <path id="Path_924" data-name="Path 924" d="M168.873,1191.161a.479.479,0,0,0,.322-.137.3.3,0,0,0,.064-.356L99.03,1059.3a.432.432,0,0,0-.451-.192.344.344,0,0,0-.322.328l-5.246,115.481a.4.4,0,0,0,.29.356l75.476,15.859A.132.132,0,0,0,168.873,1191.161ZM98.965,1060.916l69.2,129.4-74.35-15.641Z" transform="translate(-93.011 -1059.103)" fill="#366"/>
      </g>
      <g id="Group_158" data-name="Group 158" transform="translate(81.623 740.784)">
        <path id="Path_925" data-name="Path 925" d="M170,1191.17h.064a.343.343,0,0,0,.322-.3l8.561-112.906a.361.361,0,0,0-.29-.356l-78.824-18.461a.446.446,0,0,0-.418.109.3.3,0,0,0-.064.356l70.23,131.368A.646.646,0,0,0,170,1191.17Zm8.143-112.988-8.433,111.263-69.232-129.451Z" transform="translate(-99.314 -1059.135)" fill="#366"/>
      </g>
    </g>
  </g>
</svg>
