<svg id="LOGO" xmlns="http://www.w3.org/2000/svg" width="237.986" height="138.424" viewBox="0 0 237.986 138.424">
  <path id="Path_243" data-name="Path 243" d="M33.629,274.945c-11.055.2-20.091-6.519-23.337-17.385-2.9-9.672,1.144-19.815,10.524-25.7a53.944,53.944,0,0,1,9.677-4.732c20.624-7.746,30.571-22.449,29.656-44.548-.3-7.256.335-14.359,4.912-20.577,5.62-7.627,13.19-10.6,22.283-9.216a23.791,23.791,0,0,1,19.541,18.958c1.868,9.353-.762,17.1-8.454,22.986-4.111,3.147-8.924,4.7-13.712,6.368-20.291,7.074-28.73,19.172-28.386,40.594.063,3.922.4,7.867.144,11.763C55.631,266.248,46.522,274.711,33.629,274.945Z" transform="translate(-9.37 -136.525)" fill="#217371"/>
  <path id="Path_244" data-name="Path 244" d="M672.1,206.3a23.346,23.346,0,0,1-23.061-17.706c-2.832-10.99,2.091-21.231,13.312-27.156,5.633-2.974,11.43-5.608,16.713-9.234,9.942-6.827,15.67-16.045,16.1-28.215.225-6.7-.184-13.426.245-20.1.985-15.366,14.676-25.306,29.2-21.483,10.2,2.7,16.818,10.378,17.915,22.042.9,9.641-4,16.663-12.138,21.249-4.961,2.794-10.443,4.649-15.544,7.216-14.611,7.357-21.86,20.68-20.395,36.984.468,5.206,1.243,10.4.7,15.654C693.856,198.144,684.745,206.342,672.1,206.3Z" transform="translate(-504.646 -81.58)" fill="#217371"/>
  <path id="Path_245" data-name="Path 245" d="M464.237,300c12.673-.043,22.616,9.585,22.757,22.029.135,12-10.443,22.7-22.431,22.7a22.146,22.146,0,0,1-22.456-21.842C442.008,309.528,451.17,300.049,464.237,300Z" transform="translate(-344.834 -250.902)" fill="#e66b27"/>
</svg>
