<svg xmlns="http://www.w3.org/2000/svg" width="20.823" height="16.659" viewBox="0 0 20.823 16.659">
  <path id="Icon_awesome-user-edit" data-name="Icon awesome-user-edit" d="M7.288,8.33A4.165,4.165,0,1,0,3.124,4.165,4.164,4.164,0,0,0,7.288,8.33ZM10.2,9.371H9.66a5.664,5.664,0,0,1-4.744,0H4.373A4.374,4.374,0,0,0,0,13.744V15.1a1.562,1.562,0,0,0,1.562,1.562h8.944a1.562,1.562,0,0,1-.085-.693l.221-1.982.039-.361.257-.257,2.515-2.515a4.329,4.329,0,0,0-3.25-1.48ZM11.678,14.1l-.221,1.985a.518.518,0,0,0,.573.573l1.982-.221L18.5,11.948,16.165,9.615,11.678,14.1ZM20.6,8.749,19.363,7.516a.78.78,0,0,0-1.1,0l-1.23,1.23-.133.133,2.336,2.333,1.36-1.36a.784.784,0,0,0,0-1.1Z" fill="#373737" opacity="0.37"/>
</svg>