<svg xmlns="http://www.w3.org/2000/svg" width="100.121" height="117.525" viewBox="0 0 100.121 117.525">
  <g id="LOGO" transform="matrix(0.966, 0.259, -0.259, 0.966, 0.009, -91.471)">
    <path id="Path_244" data-name="Path 244" d="M667.6,182.74a18.936,18.936,0,0,1-18.7-14.362c-2.3-8.914,1.7-17.22,10.8-22.026,4.569-2.412,9.271-4.549,13.556-7.49,8.064-5.537,12.71-13.014,13.058-22.885.182-5.431-.149-10.89.2-16.307.8-12.464,11.9-20.526,23.684-17.425,8.272,2.188,13.641,8.418,14.531,17.879.729,7.82-3.242,13.516-9.846,17.235-4.024,2.266-8.471,3.77-12.608,5.853-11.851,5.967-17.731,16.774-16.542,30,.379,4.223,1.008,8.438.571,12.7C685.243,176.125,677.853,182.775,667.6,182.74Z" transform="translate(-599.303 0)" fill="#217371"/>
  </g>
</svg>