<svg xmlns="http://www.w3.org/2000/svg" width="16.319" height="18.651" viewBox="0 0 16.319 18.651">
  <path id="Icon_awesome-calendar-alt" data-name="Icon awesome-calendar-alt" d="M0,16.9a1.749,1.749,0,0,0,1.749,1.749H14.571A1.749,1.749,0,0,0,16.319,16.9V6.994H0Zm11.657-7.14a.438.438,0,0,1,.437-.437h1.457a.438.438,0,0,1,.437.437V11.22a.438.438,0,0,1-.437.437H12.094a.438.438,0,0,1-.437-.437Zm0,4.663a.438.438,0,0,1,.437-.437h1.457a.438.438,0,0,1,.437.437v1.457a.438.438,0,0,1-.437.437H12.094a.438.438,0,0,1-.437-.437ZM6.994,9.762a.438.438,0,0,1,.437-.437H8.888a.438.438,0,0,1,.437.437V11.22a.438.438,0,0,1-.437.437H7.431a.438.438,0,0,1-.437-.437Zm0,4.663a.438.438,0,0,1,.437-.437H8.888a.438.438,0,0,1,.437.437v1.457a.438.438,0,0,1-.437.437H7.431a.438.438,0,0,1-.437-.437ZM2.331,9.762a.438.438,0,0,1,.437-.437H4.226a.438.438,0,0,1,.437.437V11.22a.438.438,0,0,1-.437.437H2.768a.438.438,0,0,1-.437-.437Zm0,4.663a.438.438,0,0,1,.437-.437H4.226a.438.438,0,0,1,.437.437v1.457a.438.438,0,0,1-.437.437H2.768a.438.438,0,0,1-.437-.437ZM14.571,2.331H12.822V.583A.585.585,0,0,0,12.24,0H11.074a.585.585,0,0,0-.583.583V2.331H5.828V.583A.585.585,0,0,0,5.246,0H4.08A.585.585,0,0,0,3.5.583V2.331H1.749A1.749,1.749,0,0,0,0,4.08V5.828H16.319V4.08A1.749,1.749,0,0,0,14.571,2.331Z" fill="#373737" opacity="0.37"/>
</svg>